<svg xmlns="http://www.w3.org/2000/svg" width="36" height="36" viewBox="0 0 36 36">
  <path id="Icon_awesome-wpexplorer" data-name="Icon awesome-wpexplorer" d="M36,18A18,18,0,1,1,18,0,18.012,18.012,0,0,1,36,18Zm-2.25,0A15.75,15.75,0,1,0,18,33.75,15.774,15.774,0,0,0,33.75,18ZM11.313,8.761l6.11,2.609-2.609,6.11L8.7,14.871l2.609-6.11Zm7.734,11.89,3.277,6.609H21.3l-3.516-7.031L14.344,27.26h-.984l3.593-7.516-1.568-.661.422-.984,4.823,2.046-.422,1.005Zm-.83-8.177,4.823,2.067-2.067,4.8-4.8-2.046,2.046-4.823Zm5.646,3.016L27.7,17.114l-1.645,3.818L22.24,19.308l1.624-3.818Z" fill="#ff4d00"/>
</svg>
