<svg xmlns="http://www.w3.org/2000/svg" width="59.5" height="58" viewBox="0 0 59.5 58">
  <path id="Icon_ionic-logo-github" data-name="Icon ionic-logo-github" d="M32,2.25A29.735,29.735,0,0,0,22.6,60.2a2.39,2.39,0,0,0,.5.052,1.42,1.42,0,0,0,1.527-1.476c0-.712-.027-2.576-.04-5.062a13.935,13.935,0,0,1-3,.35c-5.724,0-7.026-4.337-7.026-4.337-1.355-3.431-3.307-4.35-3.307-4.35-2.59-1.774-.013-1.825.186-1.825h.013a6.375,6.375,0,0,1,4.555,3.081,5.862,5.862,0,0,0,5.259,3.25,8.537,8.537,0,0,0,3.4-.777,6.361,6.361,0,0,1,1.886-3.975c-6.6-.751-13.547-3.3-13.547-14.694a11.473,11.473,0,0,1,3.055-7.975,10.69,10.69,0,0,1,.292-7.871,2.536,2.536,0,0,1,.664-.065c1.076,0,3.506.4,7.517,3.12a28.343,28.343,0,0,1,14.9,0c4.011-2.719,6.441-3.12,7.517-3.12a2.536,2.536,0,0,1,.664.065,10.69,10.69,0,0,1,.292,7.871,11.52,11.52,0,0,1,3.055,7.975c0,11.419-6.959,13.93-13.587,14.668,1.063.919,2.019,2.732,2.019,5.5,0,3.975-.04,7.185-.04,8.156a1.412,1.412,0,0,0,1.514,1.489A2.634,2.634,0,0,0,41.4,60.2,29.735,29.735,0,0,0,32,2.25Z" transform="translate(-2.25 -2.25)"/>
</svg>
