<svg xmlns="http://www.w3.org/2000/svg" width="56" height="54.5" viewBox="0 0 56 54.5">
  <path id="Icon_awesome-linkedin" data-name="Icon awesome-linkedin" d="M52,2.25H3.987A3.963,3.963,0,0,0,0,6.179V52.821A3.963,3.963,0,0,0,3.987,56.75H52a3.974,3.974,0,0,0,4-3.929V6.179A3.974,3.974,0,0,0,52,2.25ZM16.925,48.964h-8.3V22.955h8.313V48.964ZM12.775,19.4a4.685,4.685,0,1,1,4.813-4.684A4.744,4.744,0,0,1,12.775,19.4ZM48.037,48.964h-8.3V36.313c0-3.017-.062-6.9-4.312-6.9-4.325,0-4.988,3.285-4.988,6.679V48.964h-8.3V22.955H30.1v3.552h.112a8.788,8.788,0,0,1,7.862-4.2c8.4,0,9.963,5.389,9.963,12.4Z" transform="translate(0 -2.25)"/>
</svg>
