<svg id="Component_4_1" data-name="Component 4 – 1" xmlns="http://www.w3.org/2000/svg" width="498.124" height="643.373" viewBox="0 0 498.124 643.373">
  <path id="Polygon_1" data-name="Polygon 1" d="M158.5,0,317,115H0Z" transform="translate(44.562 528.373)" fill="#7ee081"/>
  <path id="Polygon_2" data-name="Polygon 2" d="M248,0,496,126H0Z" transform="matrix(-1, 0.017, -0.017, -1, 498.124, 533.294)" fill="#ffac81"/>
  <ellipse id="Ellipse_1" data-name="Ellipse 1" cx="59" cy="60" rx="59" ry="60" transform="matrix(0.978, 0.208, -0.208, 0.978, 87.64, 281.918)" fill="#32d9c8"/>
  <ellipse id="Ellipse_2" data-name="Ellipse 2" cx="40" cy="39" rx="40" ry="39" transform="translate(178.562 263.373)" fill="#d9ca3e"/>
  <rect id="Rectangle_4" data-name="Rectangle 4" width="284" height="44" rx="22" transform="matrix(0.788, -0.616, 0.616, 0.788, 178.12, 384.461)" fill="#dd4446"/>
  <rect id="Rectangle_5" data-name="Rectangle 5" width="28" height="198" rx="14" transform="translate(41.562 216.373)" fill="#bbbac6"/>
  <text id="A_Full_Stack" data-name="A &quot;Full&quot; Stack" transform="translate(0 27) rotate(-8)" fill="#69baa5" font-size="50" font-family="MVBoli, MV Boli"><tspan x="0" y="57">A &quot;Full&quot; </tspan><tspan x="0" y="138">Stack</tspan></text>
  <g id="PointerTo" transform="translate(165.264 93.712) rotate(9)">
    <path id="Path_1" data-name="Path 1" d="M1526.634,219.842c92.234,105.077,191.527,88.858,191.527,88.858l-191.527,25.03,144.486,15.018" transform="translate(-1526.634 -219.842)" fill="none" stroke="#fff" stroke-width="3"/>
    <path id="Polygon_3" data-name="Polygon 3" d="M6.106,1.789a1,1,0,0,1,1.789,0l5.382,10.764A1,1,0,0,1,12.382,14H1.618a1,1,0,0,1-.894-1.447Z" transform="translate(157.544 124.042) rotate(98)" fill="#fff"/>
  </g>
  <rect id="Rectangle_6" data-name="Rectangle 6" width="75" height="73" rx="10" transform="translate(303.562 337.373)" fill="#dfb7ff"/>
</svg>
