<svg xmlns="http://www.w3.org/2000/svg" width="86.873" height="60.239" viewBox="0 0 86.873 60.239">
  <path id="Icon_material-more" data-name="Icon material-more" d="M79.634,4.5h-54.3a6.955,6.955,0,0,0-5.755,2.945L0,34.619,19.583,61.76a7.464,7.464,0,0,0,6.009,2.978H79.634a7,7,0,0,0,7.239-6.693V11.193A7,7,0,0,0,79.634,4.5ZM32.577,39.639a5.23,5.23,0,0,1-5.43-5.02,5.23,5.23,0,0,1,5.43-5.02,5.23,5.23,0,0,1,5.43,5.02A5.23,5.23,0,0,1,32.577,39.639Zm18.1,0a5.23,5.23,0,0,1-5.43-5.02,5.446,5.446,0,0,1,10.859,0A5.23,5.23,0,0,1,50.676,39.639Zm18.1,0a5.23,5.23,0,0,1-5.43-5.02,5.446,5.446,0,0,1,10.859,0A5.23,5.23,0,0,1,68.775,39.639Z" transform="translate(0 -4.5)" fill="#f6ebff"/>
</svg>
